<svg xmlns="http://www.w3.org/2000/svg" viewBox="0 0 1048.14 1120.1"><title>Asset 2logo</title><path d="M1048.14,555.6c0-63.74-24.78-123.2-67-163a247.46,247.46,0,0,0,11.33-74c0-120.3-84.78-218.16-189-218.16a166,166,0,0,0-25.13,2C737.95,39.65,673.52,0,601.27,0,563.55,0,526.71,11.19,494,32.21a243.08,243.08,0,0,0-68.51-9.88c-98.11,0-188.38,59.51-238.66,156h0C78.48,219.54,0,337.41,0,476.1,0,591.12,54.06,695.89,141.28,751c27.89,30.84,65.61,49.91,107.19,49.91,30.64,0,59.84-10.17,85.12-29.44,36,57.65,91.89,97.69,156,106.36l-42.2,242.24L664.32,896a200.2,200.2,0,0,0,57.46,8.67c89.79,0,170.7-59.55,209.05-152.5C999.33,721.76,1048.14,645.22,1048.14,555.6ZM798.67,240.17c15.81,0,28.67,14.86,28.67,33.1s-12.86,33.1-28.67,33.1S770,291.52,770,273.27,782.87,240.17,798.67,240.17Zm66.95,473.17a120.53,120.53,0,0,1-45-8.79,98.08,98.08,0,0,0,2.83-23.25c0-47.45-33.43-86-74.54-86s-74.54,38.59-74.54,86,33.44,86,74.54,86c17,0,32.71-6.71,45.28-17.84a162.17,162.17,0,0,0,71.39,16.8c1.58,0,3.11-.24,4.67-.28-34.58,53.17-89.12,85.67-148.51,85.67-90.88,0-167.43-77.12-182.77-177.58,31-10.42,53.75-43.47,53.75-82.57,0-47.44-33.44-86-74.54-86s-74.54,38.6-74.54,86c0,36.85,20.22,68.27,48.48,80.5,10.09,88.2,58.06,163.12,124,202.63l-96.65,99.84L545.3,826.45l-28.2.21c-98.66.78-179.47-91.23-180.14-205.12a236.11,236.11,0,0,1,10.81-72,65.39,65.39,0,0,0,16,1.91c41.1-.33,74.32-39.2,74-86.62s-33.94-85.79-75-85.47-74.31,39.19-74,86.63a93.28,93.28,0,0,0,18.93,56.54,296.12,296.12,0,0,0-16.55,99.37,291.54,291.54,0,0,0,19.58,103.53C292.37,740.15,271,748,248.47,748c-60.28,0-109.33-56.62-109.33-126.19a144.61,144.61,0,0,1,3.2-30,65,65,0,0,0,18.87,2.9c41.1,0,74.54-38.61,74.54-86s-33.44-86.05-74.54-86.05-74.54,38.6-74.54,86.05a94.24,94.24,0,0,0,15.76,52.71,204.86,204.86,0,0,0-9.16,60.44c0,5.08.3,10.08.67,15-30.63-45-48.08-101.23-48.08-160.74,0-143.62,101.23-260.48,225.66-260.48a197.46,197.46,0,0,1,79.24,16.56,99.46,99.46,0,0,0-1.19,14.9c0,47.45,33.44,86,74.54,86s74.54-38.59,74.54-86-33.44-86-74.54-86c-20,0-38.23,9.22-51.64,24.13a238,238,0,0,0-100.95-22.5c-6.15,0-12.25.32-18.31.79h0C296.84,108.06,359,75.29,425.49,75.29c126,0,228.84,116.26,232.44,260.7-36.92,5.09-65.66,41.41-65.66,85.38,0,47.44,33.44,86,74.54,86s74.54-38.6,74.54-86c0-31.85-15.11-59.63-37.45-74.52,0-1,.08-2,.08-3,0-122.87-60.06-229.83-148-283.91A153.55,153.55,0,0,1,601.27,53c78.05,0,144.64,58.22,166.94,141.87-25.94,13.47-44.08,43.54-44.08,78.44,0,47.44,33.45,86,74.54,86s74.54-38.6,74.54-86c0-41.13-25.14-75.54-58.59-84a282.93,282.93,0,0,0-10.83-35.89c78.76.21,142.78,74.22,142.78,165.19,0,42.61-14.41,83.36-39.45,113.83-13-12.79-29.83-20.55-48.21-20.55-41.1,0-74.53,38.6-74.53,86s33.43,86,74.53,86,74.54-38.6,74.54-86a98.48,98.48,0,0,0-1.89-19,213.83,213.83,0,0,0,28.07-37.76c27,29.53,42.64,70.65,42.64,114.45C1002.27,642.59,941,713.34,865.62,713.34Zm-88-32c0,18.23-12.87,33.09-28.67,33.09s-28.66-14.86-28.66-33.09,12.86-33.1,28.66-33.1S777.62,663.06,777.62,681.31Zm-259.4-56.67c-15.81,0-28.67-14.84-28.67-33.09s12.86-33.1,28.67-33.1,28.67,14.85,28.67,33.1S534,624.63,518.22,624.63Zm-183.64-159c-.11-18.25,12.67-33.2,28.46-33.32s28.76,14.62,28.87,32.87-12.67,33.2-28.48,33.31S334.69,483.88,334.59,465.64Zm-202,43c0-18.26,12.86-33.1,28.66-33.1s28.67,14.85,28.67,33.1S177,541.73,161.22,541.73,132.55,526.88,132.55,508.65Zm262.9-261.58c0-18.23,12.86-33.08,28.67-33.08s28.67,14.85,28.67,33.08-12.86,33.1-28.67,33.1S395.45,265.32,395.45,247.07ZM235.85,165.47c.22,0,.43-.06.64-.1Zm431,222.81c15.8,0,28.67,14.83,28.67,33.09s-12.87,33.09-28.67,33.09-28.67-14.84-28.67-33.09S651,388.28,666.81,388.28ZM887.58,497.89c0,18.24-12.86,33.09-28.67,33.09s-28.66-14.85-28.66-33.09,12.86-33.1,28.66-33.1S887.58,479.64,887.58,497.89Z" style="fill:#231f20"/></svg>